<?xml version="1.0" encoding="utf-8"?>
<!-- Generator: Adobe Illustrator 26.0.0, SVG Export Plug-In . SVG Version: 6.00 Build 0)  -->
<svg version="1.1" id="Capa_1" xmlns="http://www.w3.org/2000/svg" xmlns:xlink="http://www.w3.org/1999/xlink" x="0px" y="0px"
	 viewBox="0 0 955.88 176.98" style="enable-background:new 0 0 955.88 176.98;" xml:space="preserve">
<style type="text/css">
	.st0{fill:#0C0C0C;}
	.st1{fill:#F5F5F5;}
</style>
<g>
	<path class="st0" d="M952.43,94.77c-10.23-13.62-27.94-26.98-41.12-34.94c-5.93-3.58-12.12-6.37-18.1-9.07
		c-2.92-1.32-5.68-2.56-8.42-3.89c-3.11-1.51-6.57-2.28-10.28-2.28c-2.45,0-4.97,0.34-7.49,1.01c-4.48,1.19-8.35,3.2-11.63,4.98
		c-3.59,1.94-5.61,5.83-5.11,9.9c0.51,4.16,3.47,7.52,7.53,8.56c3.33,0.85,6.61,1.84,9.85,2.97c-2.26,1.17-4.2,2.55-5.91,3.82
		c-0.92,0.69-1.67,1.53-2.27,2.46c-10.93-8.24-19.93-16.41-27.68-25.09c-5.75-6.45-10.38-12.36-14.15-18.09
		c-2.63-3.99-4.57-8.01-6.7-13.88c-2.04-5.72-7.56-9.42-14.06-9.42c-0.56,0-1.13,0.03-1.69,0.09c-0.5,0.05-1.06,0.09-1.65,0.13
		c-1.28,0.08-2.74,0.18-4.31,0.47l-0.07,0.01l-0.07,0.02c-3.08,0.63-5.84,1.55-8.46,2.83l-0.03,0.02l-0.03,0.02
		c-3.07,1.53-5.41,4.25-6.44,7.46c-0.98,3.07-0.69,6.31,0.81,9.13c2.64,5.02,5.03,10.44,7.1,16.06c5.02,13.79,7.49,25.34,7.76,36.35
		c0.19,6.6-0.11,11.99-0.96,16.9c-2.26,0.17-4.62,0.39-7.08,0.66c-0.35-1.89-1.23-3.69-2.57-5.14c-0.74-0.81-1.59-1.63-2.47-2.43
		c2.16-1.02,4.29-2.13,6.37-3.3c2.24-1.24,3.94-3.41,4.64-5.92c0.69-2.5,0.36-5.1-0.94-7.34c-0.31-0.54-0.64-1.09-0.97-1.64
		c-0.55-0.91-1.06-1.76-1.45-2.54c-0.55-1.11-1.07-2.15-1.47-3.13c-0.79-1.94-2.23-3.45-4-4.38c0.03-0.08,0.07-0.16,0.1-0.24
		c1.24-2.7,1.06-5.78-0.5-8.25c-1.65-2.61-4.56-4.16-7.8-4.16c-0.92,0-1.82,0.13-2.69,0.38c-8.22,2.43-16.78,4.33-25.45,5.64
		c-5.17,0.77-10.58,1.37-16.53,1.83c-0.16-1.25-0.58-2.47-1.25-3.61c-1.77-3.01-5.05-4.88-8.56-4.88h-0.06l-0.06,0
		c-0.98,0.02-1.96,0.03-2.94,0.04c-1.99,0.02-4.06,0.04-6.13,0.11c-2.82,0.1-5.59,0.24-8.48,0.43l-0.17,0.01l-0.17,0.02
		c-0.8,0.09-1.58,0.29-2.31,0.59c0.67-1.04,1.39-2.1,2.15-3.21l8.51-12.38h-15.02H673.3h-3.54l-2.36,2.64
		c-4.87,5.45-8.08,11.64-11.18,17.63c-0.34,0.65-0.68,1.3-1.02,1.95c-5.32,10.22-8.82,21-11.28,29.25c-0.5,1.65-0.98,3.32-1.44,4.99
		c-0.67-0.8-1.34-1.6-2.03-2.39c-5.5-6.3-11.82-12.15-19.32-17.9c-3.9-2.96-7.97-5.74-12.14-8.29c-3.52-2.13-7.25-2.23-9.04-2.28
		l-0.15,0c-2-0.04-4.07-0.09-6.05-0.18c-1.56-0.06-3.08-0.16-4.68-0.26c-0.81-0.05-1.62-0.1-2.43-0.15
		c-0.21-0.01-0.41-0.02-0.62-0.02c-3.05,0-5.85,1.46-7.59,3.89l0-0.01c-1.56-4.55-5.72-7.75-10.59-8.15
		c-1.08-0.09-2.15-0.15-3.19-0.21c-2.01-0.11-3.9-0.22-5.52-0.57c-3.52-0.74-6.82-1.97-9.86-3.66c-1.55-0.85-3.25-1.29-4.97-1.29
		c0,0,0,0,0,0c-5.37,0-9.81,4.18-10.11,9.53c-0.25,4.59-0.88,9.26-1.85,13.89c-0.32-6.5-1.19-14.38-4.01-21.93
		c-1.68-4.52-3.83-8.85-6.37-12.85l-2.33-3.66h-4.34h-18.35h-7.27l-0.61,7.24c-0.12,1.41,0.05,2.85,0.49,4.19
		c-1.91-2.28-4.68-3.76-7.74-3.96c-0.63-0.04-1.29-0.11-1.95-0.18c-1.28-0.13-2.74-0.27-4.25-0.3c-0.57-0.01-1.12-0.02-1.66-0.02
		c-2.13,0-4.07,0.1-5.93,0.29c-4.22,0.43-8.17,2.76-10.53,6.22c-2.22,3.25-2.89,7.29-1.84,11.07c0.06,0.23,0.13,0.46,0.19,0.69
		c-1.21-0.59-2.55-0.93-3.96-0.97c-0.7-0.03-1.45-0.04-2.2-0.04c-2.02,0-4.13,0.1-6.28,0.3c-2.61,0.21-5.21,0.59-7.72,1.11
		c-3.35,0.7-5.46,2.12-6.79,3.68c-1.47-4.79-4.21-8.8-6.52-12.14l-0.03-0.05c-1.88-2.7-4.96-4.3-8.25-4.3
		c-2.28,0-4.53,0.77-6.34,2.17c-0.65,0.51-1.26,0.89-1.88,1.17l-0.04,0.02l-0.04,0.02c-0.53,0.25-1.62,0.47-2.67,0.68
		c-0.43,0.09-0.86,0.17-1.28,0.27c-2.39,0.5-5.05,0.63-7.86,0.78c-1.06,0.05-2.13,0.11-3.19,0.18c-0.18,0.01-0.37,0.03-0.55,0.04
		c-1.86-4.05-5.99-6.79-10.88-6.9c-1.61-0.05-3.23-0.07-4.76-0.07c-4.8,0-9.22,0.24-13.54,0.72c-3.58,0.38-6.6,2.79-7.83,6.27
		c-0.04,0.13-0.09,0.25-0.13,0.38c-2.11-0.07-4.07-0.15-5.83-0.22c-0.15-0.01-0.3-0.01-0.45-0.01c-0.58,0-1.15,0.07-1.71,0.18
		c-0.74-0.23-1.51-0.39-2.31-0.43l-0.06,0l-0.06,0c-0.52-0.02-1.04-0.05-1.58-0.08c-0.63-0.04-1.27-0.07-1.91-0.1
		c-0.71-0.05-1.43-0.08-2.15-0.12c-0.66-0.03-1.33-0.06-1.98-0.11c-0.18-0.01-0.39-0.02-0.61-0.02c-0.48,0-0.95,0.05-1.41,0.12
		c-0.51-0.16-1.03-0.28-1.57-0.35c0.15-0.25,0.3-0.49,0.44-0.74c12.83-21.52,14.08-28.68,13.52-33.21l-0.09-0.74l-0.23-0.71
		c-1.31-4.07-4.84-6.13-10.5-6.13c-2.5,0-5.51,0.3-7.7,0.52c-0.65,0.06-1.22,0.12-1.64,0.15c-2,0.16-3.88,0.31-35.44,18.89
		c-5.1,3-30.79,18.18-36.04,22.39c-2.13,1.7-4.39,3.42-6.57,5.09c-4.76,3.63-9.64,7.36-14.25,11.55c-1.03-2.18-2.32-4.38-3.91-6.64
		c-3.65-5.2-7.95-9.24-12.78-12.02c-1.25-0.74-2.62-1.23-4.03-1.54c-0.77-0.64-1.65-1.15-2.63-1.48c-2.06-0.7-4.07-1.21-6.14-1.56
		l-0.03-0.01l-0.03-0.01l-0.54-0.09c-1.74-0.28-3.72-0.6-5.49-0.6c-0.52,0-1,0.03-1.46,0.08c-1.95,0.24-4.01,0.57-6.34,1.03
		c-2.34,0.47-4.67,1.04-6.97,1.7l-0.04,0.01l-0.04,0.01c-0.45,0.13-0.88,0.31-1.29,0.51c-1.22-5.13-2.22-10.28-2.94-15.4
		c-0.5-3.92-2.83-6.99-6.26-8.27c-3.32-1.28-6.64-2.68-9.87-4.14c-2.07-0.92-4.17-1.9-6.2-2.85l-0.09-0.04l-0.09-0.04l-0.11-0.05
		c-0.81-0.36-2.51-1.11-4.67-1.11c-2.1,0-4.08,0.69-5.71,1.99l-6.28,5.02c-1.38,1.1-4.36,4.2-3.31,9.82
		c0.73,3.96,1.33,8.22,1.81,13.03l0.06,0.6c0.39,4.17,0.78,8.18,0.86,12.1c-0.9-1.94-1.71-4-2.56-6.14
		c-0.63-1.61-1.29-3.27-2.01-4.94l-0.03-0.07l-0.03-0.07c-1.68-3.7-5.45-6.09-9.6-6.09c-0.27,0-0.55,0.01-0.82,0.03l-0.32,0.02
		c-2.05,0.13-4.16,0.27-6.27,0.45c-1.48,0.12-2.97,0.29-4.42,0.46c-0.89,0.1-1.78,0.21-2.67,0.3l-0.06,0.01l-0.06,0.01
		c-5.06,0.58-8.87,4.97-8.9,10.21c-0.04,3.6-0.2,7.36-0.49,11.5l-0.09,1.23c-0.6,7.83-1.17,15.22-3.19,22.13
		c-0.47,1.6-1.01,3.23-1.61,4.86c-6.7-6.75-14.15-12.37-20.85-17.13c-10.72-7.6-30.84-18.02-44.85-23.22
		c-2.68-0.99-4.89-1.45-6.96-1.45c-5.12,0-9.23,2.9-11.26,7.95c-0.14,0.35-2.92,7.4-3.59,10.84c-0.65,3.36,0,6.56,1.81,9.03
		c1.74,2.37,4.42,3.88,7.55,4.24c1.61,0.18,3.18,0.45,4.71,0.77c-0.22,0.45-0.42,0.91-0.59,1.39c-0.4,1.18-0.82,2.4-1.24,3.62
		c-0.42,1.23-0.84,2.46-1.26,3.7l-0.02,0.07l-0.02,0.07c-1.74,5.43,0.23,10.59,4.89,12.83l0.05,0.02l0.05,0.02
		c4.3,1.99,10.8,5.01,15.05,7.29c2.8,1.5,5.54,3.11,8.43,4.81c1.56,0.92,3.13,1.84,4.71,2.74c1.98,1.16,3.99,1.75,5.98,1.75
		c3.11,0,5.94-1.45,7.75-3.96l3.37-4.73c0.06-0.09,0.11-0.17,0.17-0.26c0.5,0.53,1,1.06,1.48,1.61c3.01,3.43,5.8,7.16,8.31,11.09
		c2.53,3.95,6.89,6.42,11.68,6.63c0.48,0.02,0.93,0.03,1.37,0.03c2.53,0,5.12-0.29,7.7-0.86c1.68-0.36,3.14-0.91,4.43-1.39
		c0.46-0.17,0.93-0.35,1.4-0.51c3.1-1.03,5.54-3.35,6.71-6.37c1.14-2.95,0.91-6.22-0.64-8.99l-0.02-0.04l-0.02-0.04
		c-0.09-0.15-0.18-0.29-0.26-0.44c0.53,0.18,1.06,0.36,1.59,0.54c1.04,0.37,2.12,0.56,3.22,0.56c3.7,0,7.05-2.14,8.56-5.47
		c0.71-1.53,1.37-3.14,1.98-4.82c0.95,1.83,1.95,3.77,3.04,5.88l2.1,4.1l4.6,0.19c3.62,0.15,6.63,0.28,9.76,0.46
		c2.68,0.14,5.36,0.32,8.1,0.51c0.24,0.02,0.5,0.03,0.77,0.03c3.91,0,7.25-2.12,8.71-5.54c0.87-2.02,1.57-3.88,2.16-5.7
		c0.28-0.86,0.54-1.71,0.77-2.56c0.87,1.66,1.81,3.32,2.81,4.96c5,8.14,9.8,14.18,15.09,19.02c4.83,4.37,10.16,8.76,16.66,11.54
		c6.29,2.66,12.76,3.5,18.81,4.01c2.07,0.19,4.25,0.28,6.64,0.28c0.61,0,1.23-0.01,1.84-0.02c3.89-0.05,7.38-2.81,8.32-6.59
		c0.94-3.76-0.81-7.66-4.26-9.5l-0.07-0.04l-0.07-0.04c-2.62-1.32-5.23-2.87-7.79-4.59c0.95,0.06,1.91,0.11,2.91,0.11
		c6.16,0,12.18-1.22,17.48-2.31c8.68-1.74,17.13-4.29,25.3-6.75c3.92-1.18,7.73-2.33,11.52-3.39c1.5,3.04,4.69,5.05,8.45,5.05
		c0.27,0,0.56-0.01,0.86-0.03c0.01,0,0.02,0,0.03,0c0.53,0.56,1.48,2.59,1.77,5.71c0.15,1.7-0.25,3.85-0.69,6.13l-0.14,0.75
		c-1.62,8.6-5.48,16.85-9.04,23.78l-0.02,0.04l-0.02,0.04c-1.74,3.48-1.87,7.38-0.34,10.43c1.36,2.71,3.88,4.59,6.92,5.16
		l12.31,2.37c1.08,0.21,2.2,0.32,3.32,0.32c2.87,0,5.69-0.72,8.18-2.09c5.72-3.13,11.28-6.32,16.49-9.48
		c17.1-10.34,34.78-21.04,49.09-36.33c1.52-1.63,3.04-3.31,4.45-5.1c2.39,2.22,5,4.23,7.76,5.96c3.35,2.14,6.87,2.39,9.22,2.39
		c0.68,0,1.32-0.02,1.91-0.05l11.19-0.37l0.04,0l0.04,0c4.91-0.22,9.28-2.68,11.69-6.59c0.16-0.26,0.38-0.58,0.62-0.93
		c0.64-0.92,1.43-2.07,2.1-3.52c0.91-1.95,1.6-3.95,2.03-5.93c1.16-5.12-1.64-10.29-6.53-12.05l-9.81-3.56
		c-1.15-0.43-2.36-0.65-3.59-0.65c-3.02,0-5.78,1.3-7.68,3.41c-1.67-2.93-3.03-6.28-4.25-9.31c-0.55-1.34-1.07-2.73-1.56-4.17
		c1.44-0.04,2.97-0.1,4.59-0.16c6.57-0.25,12.9-0.65,18.81-1.19l0.03,0l0.03,0c2.37-0.24,4.57-1.23,6.27-2.76
		c0.01,1.94,0.08,3.89,0.22,5.82c0.37,5.47,1.03,11.94,3.07,18.19c2.09,6.46,5.07,12.13,8.84,16.83c3.09,3.86,7.73,6.18,12.73,6.35
		c1.46,0.05,3.37,0.11,5.12,0.11c1.59,0,2.78-0.05,3.76-0.15c2.38-0.26,6.76-0.73,9.92-4.29c0.71-0.79,1.54-1.62,2.41-2.51
		c1.84-1.85,3.92-3.95,5.71-6.51c0.27-0.4,0.54-0.8,0.8-1.2c1.16,2.35,2.12,4.42,2.97,6.39c1.82,4.2,5.64,7.05,9.96,7.43l0.04,0
		l0.04,0c1.04,0.08,2.09,0.15,3.14,0.21c1.91,0.12,3.72,0.23,5.45,0.45c2.12,0.29,4.13,0.63,6.09,1.04
		c0.08,0.89,0.28,1.78,0.62,2.62c1.38,3.47,4.56,5.7,8.32,5.83c0.93,0.04,1.86,0.07,2.8,0.1c2.34,0.07,4.55,0.14,6.63,0.37
		c4.19,0.44,7.54,1.03,10.6,1.83l0.04,0.01l0.04,0.01c1.2,0.31,2.38,0.46,3.49,0.46c3.28,0,6.21-1.38,8.05-3.79
		c0.98-1.28,2.4-3.86,1.84-7.61c1.86-3.16,3.45-6.08,4.84-8.89c2.09-0.41,4.26-0.69,6.55-0.85c0.64-0.04,1.42-0.06,2.32-0.06
		c0.91,0,1.81,0.02,2.72,0.04c0.7,0.02,1.4,0.03,2.1,0.04c1.69,2.36,3.52,4.68,5.65,6.89c6.91,7.13,15.05,12.47,24.2,15.92
		c2.29,0.89,4.71,1.33,7.19,1.33c0.92,0,1.84-0.06,2.75-0.19c2.18-0.3,4.27-0.51,6.43-0.64c1.65-0.1,3.33-0.14,4.98-0.14
		c0.55,0,1.11,0.01,1.66,0.02l0.24,0c5.23,0,7.89-3.45,8.59-6.4c0.06-0.25,0.11-0.5,0.14-0.75c0.32,0.74,0.65,1.49,1,2.24
		c1.66,3.61,5.23,5.77,9.55,5.77c0.21,0,0.43-0.01,0.64-0.01l0.03,0l0.03,0c0.5-0.03,1-0.04,1.5-0.04c2.19,0,4.42,0.26,6.63,0.78
		c1.48,0.35,3.1,1.09,4.98,1.96c1.07,0.49,2.18,1,3.38,1.49c1.21,0.48,2.44,0.72,3.71,0.72c4.95,0,8.98-3.63,9.41-8.45
		c0.17-1.86,0.36-3.73,0.58-5.59c0.29,1.25,0.65,2.49,1.08,3.74c1.11,3.21,2.69,6.29,4.68,9.13c2.06,2.9,5.36,4.55,9.08,4.55
		c1.37,0,2.78-0.22,4.19-0.65c2.83-0.85,5.85-1.68,8.53-1.68c0.64,0,1.23,0.05,1.79,0.14l0.04,0.01l0.04,0.01
		c0.52,0.08,1.05,0.12,1.57,0.12c3.49,0,6.69-1.78,8.55-4.76l0.02-0.03l0.02-0.03c0.55-0.9,1.11-1.8,1.68-2.67
		c1.13,3,3.77,5.35,7.15,5.95c0.73,0.13,1.52,0.3,2.37,0.48c1.2,0.26,2.45,0.52,3.79,0.74c2.55,0.46,5.03,0.8,7.58,1.05l0.04,0
		l0.04,0c0.36,0.03,0.73,0.05,1.1,0.05c3.43,0,6.75-1.42,9.33-4.01c1.95-1.95,4.03-3.7,6.19-5.2c3.84-2.7,8.42-4.55,13.27-6.5
		l0.5-0.2c6.34-2.55,12.86-4.48,19.47-5.75c0.1,0.2,0.2,0.39,0.31,0.56c1.52,2.56,4.15,4.13,7.23,4.3c0.83,0.05,1.64,0.07,2.46,0.09
		c1.52,0.04,2.95,0.08,4.07,0.3c2.68,0.5,5.2,1.42,7.53,2.74c1.76,1.01,3.74,1.52,5.85,1.52c2.32,0,4.29-0.62,5.92-1.22
		c5.98-2.23,12.87-2.58,19.53-2.91c1.72-0.09,3.48-0.13,5.38-0.13c5.31,0,10.57,0.33,16.15,0.67c5.57,0.35,11.34,0.7,17.14,0.7
		c0.89,0,1.79-0.01,2.68-0.03c7.15-0.14,15.26-0.31,23.19-3.5c4.38-1.79,7.31-5.58,7.87-10.15c0.35-2.84-0.23-5.75-1.55-8.33
		l2.2-1.73c0.95-0.75,1.94-1.53,2.94-2.42c0.43-0.38,0.85-0.76,1.26-1.15c0.3-0.28,0.59-0.56,0.9-0.82c0.86-0.75,1.59-1.61,2.2-2.55
		c1.57,1.66,3.09,3.35,4.53,5.07c3.07,3.65,6.09,7.74,8.99,12.15c1.88,2.86,5.04,4.57,8.46,4.57c3.38,0,6.6-1.65,8.59-4.41
		l6.39-8.86l0.02-0.03l0.02-0.03C957.03,107.1,956.66,100.41,952.43,94.77z M828.27,95.72l-0.16,0.04l-0.16,0.04
		c-1.52,0.43-3.04,0.91-4.54,1.45c-0.01-3.21-0.18-6.57-0.53-10.29c3.34,2.56,6.97,5.08,10.7,7.56c-0.5,0.09-1.03,0.19-1.62,0.34
		c-0.56,0.14-1.08,0.34-1.59,0.58C829.66,95.48,828.96,95.56,828.27,95.72z M703.7,118.99c0.21-2.01,0.52-3.99,0.91-5.93
		c0.53-2.62,1.37-5.2,2.37-7.81c0.47,0.25,0.95,0.47,1.46,0.64c-1.16,1.35-1.94,3-2.23,4.79c-0.51,3.25,0.71,6.45,3.29,8.56
		l2.08,1.72c-0.37-0.11-0.75-0.22-1.12-0.33c-1.61-0.48-3.42-1.02-5.39-1.39C704.62,119.15,704.16,119.07,703.7,118.99z
		 M623.44,124.63l-0.06-0.03c-1.4-0.67-2.77-1.4-4.13-2.17c0.56-1.14,1.09-2.3,1.56-3.51c1.74,2.21,3.33,4.55,4.77,7.01
		c-0.63-0.46-1.31-0.89-2.07-1.27L623.44,124.63z M494.41,59.5c1.49,3.61,2.57,7.29,3.2,10.94c0.22,1.28,0.38,2.58,0.49,3.89
		c-0.37-1.08-0.71-2.11-1.03-3.08c-1.8-5.31-3.51-10.89-5.23-17.09C492.81,55.92,493.67,57.7,494.41,59.5z M329.45,118.7
		c-0.65-3.79-1.9-9.07-5.33-13.72c6.68-0.74,13.12-1.19,19.4-1.35c1.61-0.04,3.25-0.06,4.87-0.06c1.09,0,2.19,0.01,3.3,0.03
		c-4.96,6.11-10.74,12.12-17.48,18.21c-1.46,1.32-2.92,2.61-4.38,3.87C329.95,123.42,329.86,121.08,329.45,118.7z M320.4,73.49
		l0.19,0.33l0.03,0.05l0.03,0.05c2.72,4.59,7.84,5.55,10.42,6.01c0.28,0.06,0.55,0.11,0.83,0.15c0.08,0.01,0.16,0.03,0.24,0.04
		l0.26,0.06l0.24,0.03c0.44,0.07,0.88,0.1,1.33,0.1c0.29,0,0.57-0.03,0.86-0.05c0.21,0.09,0.44,0.16,0.66,0.24
		c-7.22,0.55-14.39,1.49-21.46,2.56C315.35,81.08,317.65,77.68,320.4,73.49z M274.49,84.25c0.66,1.87,1.87,3.44,3.42,4.54
		c-0.7,0.1-1.41,0.2-2.11,0.3c-7.8,1.11-15.87,2.26-23.76,3.06c-0.56,0.06-1.14,0.12-1.72,0.17c3.98-3.6,8.07-7.07,12.24-10.39
		c8.5-6.82,16.37-12.44,24-17.14c-0.95,1.28-1.94,2.49-2.99,3.61l-0.03,0.03l-0.03,0.03c-1.81,1.97-3.84,3.85-6.03,5.58
		C274.35,76.55,273.19,80.55,274.49,84.25z"/>
	<g>
		<path class="st1" d="M95.12,108.34c-7.13-8.71-16.02-15.65-25.15-22.12c-10.57-7.5-30.36-17.56-43.03-22.26
			c-4.8-1.77-6.89-1.07-8.15,2.05c-0.79,2-2.75,7.26-3.17,9.41c-0.23,1.21-0.28,3.59,2.51,3.91c17.56,1.96,30.55,11.36,37.77,16.62
			c7.36,5.36,14.72,10.85,20.77,17.74c3.31,3.77,6.33,7.82,9.03,12.06c1.16,1.82,3.21,2.89,5.36,2.98c2.38,0.09,4.7-0.14,7.03-0.65
			c1.72-0.37,3.35-1.12,5.03-1.68c1.68-0.56,2.56-2.42,1.68-4C101.96,117.46,98.75,112.76,95.12,108.34z"/>
		<path class="st1" d="M57.99,101.94c-4.42-3.91-9.55-6.99-15.09-9.03c-3.54-1.35-7.26-2.24-11.04-2.7
			c-1.26-0.14-2.61,0.37-3.03,1.63c-0.84,2.47-1.68,4.89-2.51,7.36c-0.37,1.16-0.47,2.7,0.79,3.31c4.52,2.1,11.04,5.12,15.46,7.5
			c4.52,2.42,8.89,5.12,13.37,7.68c1.02,0.61,2.51,1.16,3.35,0l3.35-4.7c1.35-1.91,1.58-4.52,0-6.33
			C61.21,104.96,59.67,103.38,57.99,101.94z"/>
		<path class="st1" d="M228.97,136.87c-3.59-1.82-7.03-3.91-10.34-6.24c-4.94-3.49-9.31-7.64-13.46-12.06
			c-6.99-7.5-12.48-16.21-17.32-25.24c-5.22-9.78-8.99-20.21-12.06-30.83c-2.33-8.06-4.1-16.25-5.26-24.54
			c-0.09-0.79-0.42-1.63-1.21-1.91c-3.49-1.35-6.94-2.79-10.34-4.33c-2.1-0.93-4.19-1.91-6.29-2.89c-0.75-0.33-1.68-0.79-2.38-0.23
			l-6.29,5.03c-0.65,0.51-0.61,1.44-0.47,2.19c0.84,4.52,1.44,9.08,1.91,13.69c0.65,6.89,1.35,13.83,0.75,20.72
			c-0.42,4.8-1.21,9.5-2.42,14.16c-4.05-4.38-7.59-9.22-10.57-14.44c-2.7-4.7-4.38-9.92-6.52-14.9c-0.47-1.02-1.58-1.54-2.65-1.44
			c-2.14,0.14-4.33,0.28-6.47,0.47c-2.33,0.19-4.66,0.51-6.99,0.75c-1.21,0.14-1.91,1.26-1.91,2.42c-0.05,4-0.23,8.01-0.51,12.01
			c-0.65,8.43-1.21,16.9-3.59,25.01c-1.07,3.63-2.38,7.17-3.87,10.62c-0.14,0.33-0.14,0.79,0.23,0.93c2.33,0.93,4.66,1.82,6.99,2.65
			c2.56,0.93,5.12,1.77,7.68,2.65c0.75,0.28,1.63,0,1.96-0.75c1.54-3.31,2.7-6.8,3.59-10.34c1.21-4.94,1.12-10.11,1.68-15.13
			c2.79,5.03,5.5,10.06,8.2,15.13c1.96,3.68,3.87,7.36,5.77,11.08c3.31,0.14,6.57,0.28,9.87,0.47c2.75,0.14,5.5,0.33,8.2,0.51
			c0.65,0.05,1.4-0.09,1.68-0.75c0.7-1.63,1.35-3.31,1.91-5.03c1.54-4.66,2.24-9.55,2.89-14.44c0.88-6.71,1.12-13.46,0.75-20.21
			c1.54,6.05,3.45,12.01,5.77,17.79c2.42,6.05,5.03,12.01,8.43,17.56c3.87,6.29,8.24,12.34,13.69,17.32
			c4.38,3.96,8.99,7.78,14.44,10.11c5.17,2.19,10.8,2.93,16.39,3.4c2.56,0.23,5.12,0.28,7.68,0.23
			C229.11,138.08,229.67,137.24,228.97,136.87z"/>
		<path class="st1" d="M185.04,61.11c2.1,0.14,4.1,0.61,6.05,1.3c0.88,0.33,1.86,0.42,2.79,0.19l13.09-3.03
			c0.37-0.09,0.65-0.7,0.19-0.84c-1.63-0.56-3.26-0.98-4.94-1.26c-1.77-0.28-4.14-0.7-5.36-0.56c-1.91,0.23-3.82,0.56-5.73,0.93
			c-2.1,0.42-4.19,0.93-6.29,1.54C183.93,59.67,184.07,61.06,185.04,61.11z"/>
		<path class="st1" d="M333.57,65.11l2.89,6.38c0.37,0.88,1.16,1.58,2.14,1.72c1.07,0.19,2.19,0.37,3.26,0.51
			c1.3,0.19,2.56,0.37,3.87,0.51c0.79,0.14,2-0.23,1.58-1.21l-3.26-7.22c-0.28-0.65-0.79-1.35-1.63-1.4
			c-1.16-0.05-2.38-0.14-3.59-0.19c-1.4-0.09-2.84-0.14-4.24-0.23C333.94,63.94,333.29,64.45,333.57,65.11z"/>
		<path class="st1" d="M330.38,63.66c-1.54-0.09-3.12-0.23-4.66-0.37c-0.61-0.05-1.58,0.14-1.3,0.93c0.47,1.35,1.96,3.82,3.03,5.68
			c0.88,1.49,3.26,1.96,5.12,2.28c0.42,0.09,0.84,0.14,1.26,0.23c0.61,0.09,1.16-0.51,0.88-1.12l-2.89-6.43
			C331.54,64.26,331.08,63.7,330.38,63.66z"/>
		<path class="st1" d="M521.93,104.36c2.38-7.87,2.93-16.11,2.65-24.31c-0.23-7.59-0.98-15.23-3.63-22.35
			c-1.49-4-3.35-7.78-5.63-11.36h-18.35c-0.05,0.56,0.09,1.16,0.37,1.63c1.68,2.7,3.17,5.59,4.38,8.52
			c1.68,4.05,2.93,8.29,3.68,12.62c1.02,6.05,0.98,12.2,0,18.25c-0.74,4.61-2.05,9.08-3.87,13.36c-0.28,0.61-1.21,0.84-1.49,0.14
			c-1.44-3.17-2.84-6.38-4.14-9.64c-2.33-5.73-4.38-11.6-6.33-17.46c-1.96-5.77-3.73-11.64-5.36-17.51
			c-0.37-1.35-1.49-2.37-2.89-2.47c-1.96-0.14-3.91-0.42-5.87-0.47c-2.19-0.05-4.38,0-6.57,0.23c-3.63,0.37-6.61,3.63-5.59,7.31
			c0.93,3.35,1.58,6.75,1.96,10.2c0.65,5.82,0.84,11.78-0.47,17.51c-0.88,3.91-2.38,7.59-4.14,11.18c-0.84,1.68-1.77,3.35-2.79,4.94
			c-0.28,0.42-0.88,0.56-1.21,0.09c-0.88-1.26-1.68-2.65-2.33-4.05c-1.68-3.59-2.28-7.5-2.65-11.41c-0.37-3.91-0.37-7.87,0.47-11.69
			c0.33-1.4,0.7-2.79,1.21-4.14c0.47-1.26-0.23-2.84-1.68-2.89c-2.51-0.09-5.03,0-7.54,0.23c-2.28,0.19-4.56,0.51-6.8,0.98
			c-1.12,0.23-2.61,0.61-2.7,1.96c-0.28,3.87-0.28,7.78,0,11.64c0.37,5.49,0.98,11.04,2.7,16.3c1.68,5.17,4.1,10.11,7.5,14.34
			c1.68,2.1,4.19,3.31,6.85,3.4c2.61,0.09,6.01,0.19,7.78,0c1.72-0.19,3.73-0.42,4.84-1.68c2.51-2.79,5.4-5.22,7.54-8.29
			c3.07-4.47,5.22-9.5,6.33-14.81c2.24,4.05,4.7,8.01,6.8,12.15c1.54,3.03,3.03,6.1,4.38,9.22c0.61,1.4,1.82,2.56,3.4,2.7
			c2.98,0.23,6.01,0.33,8.99,0.7c3.12,0.42,6.19,0.98,9.27,1.72c1.35,0.33,3.07,0.33,3.87-0.98
			C517.88,115.26,520.25,109.9,521.93,104.36z"/>
		<path class="st1" d="M619.97,131.73c-5.26-2.51-10.29-5.68-14.86-9.31c-7.13-5.68-12.71-12.85-17.93-20.26
			c-6.99-9.87-12.43-20.77-16.21-32.27c-0.56-1.63-2.1-2.7-3.77-2.84c-3.21-0.28-6.52-0.23-9.73-0.93
			c-4.19-0.88-8.24-2.38-12.01-4.47c-1.44-0.79-3.26,0.09-3.35,1.77c-0.28,5.12-0.98,10.24-2.05,15.27
			c-1.68,7.73-4.47,15.18-7.87,22.26c-0.65,0.19-1.3,0.33-1.96,0.51c-1.96,0.56-3.17,2.47-2.98,4.47l0.37,3.82
			c-1.49,2.61-3.07,5.17-4.84,7.54c-2.28,3.07-4.8,5.96-7.54,8.61c-0.98,0.98-0.79,2.93,0.79,2.98c3.35,0.14,6.71,0.14,10.01,0.51
			c3.96,0.42,7.87,1.02,11.74,2.05c2.56,0.65,4.19-0.14,3.49-2.7c-0.23-0.88-0.47-1.91,0-2.7c2.7-4.47,5.17-8.94,7.26-13.6
			c3.77-1.02,7.59-1.63,11.5-1.91c2.89-0.19,5.77,0,8.66,0c1.07,0,1.21-1.3,0.75-2.05c-1.54-2.28-3.35-5.36-4.98-8.29
			c-1.96-0.51-3.91-0.88-5.91-1.02c-1.77-0.14-3.59,0-5.36,0.09c1.54-5.63,2.56-11.41,3.07-17.23c1.58,3.4,3.26,6.75,4.98,10.11
			c2.79,5.4,5.59,10.76,8.94,15.83c2.75,4.14,5.45,8.29,8.89,11.87c6.01,6.19,13.27,10.99,21.33,14.02c1.91,0.75,4,0.98,6.05,0.7
			c2.33-0.33,4.66-0.56,7.03-0.7c2.42-0.14,4.84-0.19,7.26-0.14C623.09,133.78,620.72,132.1,619.97,131.73z"/>
		<path class="st1" d="M710.18,128.78c-2.19-0.61-4.33-1.35-6.57-1.77c-2.7-0.51-5.45-0.79-8.2-0.84c0-4.94,0.47-9.83,1.44-14.67
			c1.58-7.78,5.26-14.86,8.34-22.07c1.07-2.47,2.14-4.94,3.31-7.4c10.2-0.28,20.35-1.35,30.36-3.17c8.57-1.54,17.04-3.63,25.33-6.29
			c1.35-0.42,2.65-1.02,3.49-2.19c0.79-1.12,1.54-2.28,2.19-3.49c0.75-1.4,1.26-2.84,1.91-4.28c0.47-0.98-0.79-1.4-1.58-1.16
			c-8.66,2.56-17.56,4.52-26.5,5.87c-9.69,1.44-19.47,2.19-29.29,2.61c1.16-2.24,2.33-4.38,3.54-6.57c0.7-1.26-0.42-2.61-1.77-2.61
			c-2.98,0.05-5.96,0.05-8.94,0.14c-2.75,0.09-5.45,0.23-8.2,0.42c-0.42,0.05-0.7,0.42-0.88,0.75c-1.63,2.7-3.26,5.45-4.75,8.24
			c-4.89-0.05-9.83-0.19-14.72-0.42c2.05-4.94,4.33-9.73,6.99-14.34c1.82-3.17,3.77-6.19,5.82-9.17H673.3
			c-4.7,5.26-7.82,11.74-11.08,17.98c-4.61,8.85-7.87,18.3-10.71,27.85c-2.14,7.08-3.87,14.3-5.17,21.61
			c-3.49-5.68-7.45-11.04-11.83-16.07c-5.45-6.24-11.6-11.78-18.16-16.81c-3.68-2.79-7.5-5.4-11.46-7.82
			c-1.54-0.93-3.35-1.07-5.12-1.12c-2.1-0.05-4.24-0.09-6.33-0.19c-2.42-0.09-4.84-0.28-7.26-0.42c-1.26-0.09-2.05,1.3-1.3,2.33
			c3.03,4.14,5.54,8.62,7.45,13.36c2.28,5.73,3.63,11.78,4.19,17.93c0.23,2.65,0.28,5.31,0.19,8.01c2.98,3.4,6.01,6.33,9.03,8.75
			c1.07,0.84,2.19,1.68,3.31,2.47c2.28-3.17,4-6.71,5.22-10.43c1.02-3.21,1.16-6.61,1.72-9.92l-2.28-2.7
			c7.59,5.59,13.97,12.67,18.72,20.82c2.14,3.63,3.59,7.64,5.36,11.46c0.47,1.02,1.63,1.21,2.65,1.16
			c3.49-0.19,6.94,0.14,10.34,0.93c3.35,0.79,6.33,2.51,9.55,3.82c0.93,0.37,2.19,0,2.28-1.12c1.3-14.2,3.82-28.22,7.45-42
			c1.44-5.54,2.98-11.04,4.8-16.39c4.38,0.7,8.76,1.21,13.13,1.58c-3.35,7.64-6.1,15.55-7.78,23.8c-1.96,9.64-3.91,19.74-0.61,29.29
			c0.88,2.56,2.14,4.98,3.68,7.17c1.02,1.44,2.98,1.35,4.52,0.88c4.52-1.35,9.22-2.56,13.92-1.77c0.88,0.14,1.72-0.28,2.19-1.02
			c1.91-3.12,3.87-6.29,6.71-8.66C711.39,130.41,711.25,129.05,710.18,128.78z"/>
		<path class="st1" d="M897.62,113.4c-8.94-6.61-18.67-12.11-27.94-18.25c-15.93-10.57-31.01-22.4-43.77-36.7
			c-5.36-6.01-10.43-12.29-14.86-19c-2.79-4.24-5.08-8.75-7.54-15.55c-1.07-3.03-4.38-4.47-7.5-4.14c-1.77,0.19-3.59,0.19-5.36,0.51
			c-2.28,0.47-4.47,1.16-6.57,2.19c-2.14,1.07-3.35,3.63-2.19,5.82c2.89,5.49,5.4,11.22,7.54,17.04
			c4.56,12.53,7.92,25.52,8.24,38.88c0.19,6.43-0.05,12.9-1.21,19.23c-0.33,1.82-0.75,3.63-1.16,5.4
			c-4.84,0.19-9.59,0.61-14.39,1.16c-8.1,0.98-16.25,2-24.08,4.38c-6.89,2.1-13.6,4.84-19.93,8.24c-0.7-3.21-1.3-6.47-2-9.64
			c6.05-1.68,12.15-3.21,18.3-4.47c6.52-1.35,13.13-2.24,19.7-3.4c1.49-0.28,1.3-2.05,0.47-2.93c-1.44-1.58-3.68-3.45-5.59-5.08
			c-1.02-0.84-2.38-1.02-3.63-0.75c-7.17,1.63-16.02,3.68-21.42,5.12c-3.45,0.93-6.85,1.91-10.25,2.98
			c-0.79-2.33-1.63-4.66-2.56-6.94c6.29-0.56,12.48-1.35,18.63-2.61c6.19-1.26,12.34-2.65,18.26-4.89
			c4.28-1.63,8.43-3.59,12.39-5.82c0.84-0.47,1.26-1.54,0.75-2.42c-0.88-1.54-1.86-3.03-2.65-4.61c-0.61-1.21-1.21-2.42-1.72-3.68
			c-0.42-1.02-2.05-0.19-2.93,0.28c-4.8,2.51-9.73,4.75-14.81,6.57c-7.26,2.61-14.81,4.38-22.4,5.59
			c-7.78,1.26-15.69,1.82-23.56,1.68c-0.84,0-1.68,0.56-1.72,1.44c-0.05,1.35-0.19,2.75-0.23,4.14c-0.05,1.3-0.05,2.61,0,3.91
			c0.05,0.98,1.07,1.44,1.96,1.44c1.35-0.05,2.75-0.05,4.1-0.09c1.4,3.4,2.51,6.89,3.35,10.48c-1.35,0.51-2.7,1.02-4.05,1.54
			c-1.07,0.42-1.77,1.82-0.75,2.65l6.19,5.12c0.23,2.84,0.23,5.68,0.14,8.52c-0.14,3.68-0.56,7.31-1.21,10.94
			c-0.14,0.79,0.42,1.54,1.21,1.68c2.05,0.37,4.05,0.88,6.1,1.21c2.33,0.42,4.66,0.75,7.03,0.98c1.58,0.14,3.03-0.56,4.14-1.68
			c2.24-2.24,4.66-4.28,7.26-6.1c4.7-3.31,10.01-5.4,15.32-7.54c10.06-4.05,20.58-6.66,31.39-7.68c-0.47,1.12-0.93,2.24-1.44,3.31
			c-0.47,0.98-1.16,2.84,0.47,2.93c2.51,0.14,5.08,0.05,7.54,0.51c3.49,0.65,6.85,1.86,9.97,3.63c1.63,0.93,3.49,0.37,5.12-0.23
			c6.99-2.61,14.48-3.03,21.89-3.4c13.88-0.7,27.71,1.49,41.59,1.21c6.89-0.14,13.92-0.33,20.4-2.93
			C902.18,121.74,901.06,115.92,897.62,113.4z M870.41,116.6c-3.63,0.09-7.31,0.19-10.94,0.23c-7.92,0.09-15.88-0.61-23.8-0.23
			c-3.87,0.19-7.68,0.47-11.55,0.84c3.31-1.82,6.75-3.31,10.34-4.52c2.84-0.93,5.77-1.44,8.71-2.05c0.42-0.09,0.98-0.61,0.42-0.88
			l-11.08-6.33c-0.75-0.37-1.63-0.42-2.42-0.23c-3.17,0.88-6.29,2.05-9.27,3.45c-2.14,0.98-4.24,2.14-6.24,3.4
			c0.47-3.26,0.79-6.47,0.88-9.73c0.19-5.12-0.14-10.24-0.7-15.32c-0.79-6.94-2.14-13.78-4.14-20.44l-6.57-7.78
			c2.24,2.24,4.42,4.52,6.57,6.8c3.31,3.49,6.24,7.36,9.73,10.71c7.87,7.54,20.68,15.55,31.62,22.4c3.73,2.33,7.64,4.38,11.18,7.03
			c3.26,2.42,6.33,5.12,9.22,8.01C874.09,113.66,872.78,116.55,870.41,116.6z"/>
		<path class="st1" d="M848.08,107.34l-8.99-4.84c-1.12-0.61-2.42-0.51-3.63-0.28c-0.56,0.09-1.07,0.19-1.63,0.33
			c-0.61,0.14-0.05,0.65,0.28,0.84l11.36,6.43c0.61,0.33,1.3,0.33,1.91,0.05C848.64,109.25,849.76,108.27,848.08,107.34z"/>
		<path class="st1" d="M894.5,81.74c-2.93-1.49-5.96-2.75-9.13-3.73c-3.87-1.21-8.01-1.35-11.83,0c-2.61,0.93-4.89,2.51-7.08,4.14
			c-0.75,0.56-0.93,1.77,0,2.19c6.99,3.07,13.78,6.38,20.49,10.01c5.87,3.17,11.6,6.57,17.23,10.15c0.88-0.7,1.77-1.4,2.61-2.14
			c0.75-0.65,1.44-1.35,2.19-2c2.61-2.28,1.44-6.05-0.65-8.34C904.42,87.75,899.67,84.35,894.5,81.74z"/>
		<path class="st1" d="M907.22,66.59c-8.24-4.98-17.28-8.43-25.89-12.62c-3.82-1.86-8.24-1.82-12.29-0.75
			c-3.49,0.93-6.71,2.56-9.87,4.28c-1.72,0.93-1.21,3.4,0.61,3.87c9.31,2.37,18.3,5.77,26.82,10.15c7.96,4.1,15.41,9.03,22.35,14.62
			c6.57,5.31,12.62,11.18,18.02,17.6c3.45,4.1,6.61,8.43,9.55,12.9c0.98,1.49,3.07,1.21,4.05-0.14l6.38-8.85
			c1.82-2.56,0.98-5.73-0.84-8.15C936.42,86.62,919.24,73.86,907.22,66.59z"/>
		<path class="st1" d="M420.99,105.98l-9.87-3.59c-1.35-0.51-2.93,0.28-3.21,1.72c-0.28,1.44-0.28,2.93-0.79,4.33
			c-0.61,1.58-1.49,2.98-2.65,4.19c-2.7-2.56-5.12-5.45-7.22-8.52c-2.65-3.91-4.47-8.34-6.24-12.71c-1.96-4.8-3.45-9.78-4.66-14.86
			c4.89,0,9.83-0.14,14.72-0.33c6.15-0.23,12.29-0.61,18.39-1.16c1.4-0.14,2.7-1.16,2.47-2.65c-0.7-4.61-3.45-8.57-6.05-12.34
			c-0.74-1.07-2.24-1.16-3.26-0.37c-1.07,0.84-2.19,1.54-3.4,2.1c-1.77,0.84-3.77,1.12-5.68,1.54c-4,0.84-8.1,0.84-12.15,1.12
			c-2.47,0.19-4.94,0.33-7.4,0.42c-0.23-1.26-0.42-2.56-0.56-3.82c-0.23-2.1-2.14-3.4-4.19-3.45c-6.43-0.19-11.88,0-17.23,0.61
			c-1.3,0.14-1.77,1.86-0.98,2.65c1.44,1.44,2.33,2.89,2.93,4.28c-5.68-0.05-11.32-0.23-17-0.47c-0.7-0.05-1.49,0.56-1.16,1.3
			l3.26,7.17c0.42,0.98,1.35,1.72,2.47,1.82c5.36,0.61,10.71,0.98,16.11,1.26c2,4.89,3.87,9.78,5.63,14.76
			c-12.01-3.54-24.64-3.54-37.07-2.61c-18.35,1.4-36.32,5.31-54.53,7.87c-9.59,1.35-19.19,2.79-28.83,3.77
			c-5.91,0.61-12.53,1.26-17.84,0c-1.91-0.47-1.3-2.7-0.23-3.77c7.22-7.26,14.86-14.11,22.87-20.49
			c8.48-6.8,17.32-13.23,26.64-18.81c5.59-3.35,15.7-9.64,22.28-10.59c-3.12,6.72-5.03,9.92-7.96,14.62
			c-2.84,4.47-5.63,8.99-9.27,12.85c-2.14,2.33-4.47,4.47-6.94,6.43c-1.16,0.93-0.14,2.56,1.21,2.38c3.96-0.56,7.92-0.93,11.92-1.16
			c3.03-0.19,6.01-0.23,9.03-0.23c0.65,0,1.3-0.19,1.68-0.75c1.26-2,32.73-47.12,31.43-57.61c-0.43-1.34-8.96-0.22-11.7,0
			c-2.74,0.22-60.36,34.11-67.16,39.56c-8.2,6.52-16.9,12.48-24.26,19.98c-2.14,2.14-4.19,4.38-6.19,6.66
			c0.14-2.84-0.14-5.73-0.88-8.52c-0.93-3.54-2.7-6.75-4.8-9.73c-2.75-3.91-6.15-7.36-10.29-9.73c-1.26-0.75-2.75-0.98-4.19-0.65
			l-12.99,3.03c-0.51,0.09-0.33,0.7,0,0.88c1.49,0.98,2.84,2.1,4.19,3.21c3.07,2.61,6.05,5.4,8.01,8.99
			c1.58,2.89,2.61,6.1,3.07,9.36c0.33,2.42,0.33,4.84,0,7.26l-0.61,1.72l-2.1,3.45c-1.91-1.12-3.45-2.79-4.38-4.8
			c-0.98-2-1.21-4.28-0.98-6.47c0.19-1.91,0.79-3.68,1.72-5.36c0.56-1.02,1.3-2,2.1-2.89c0.47-0.51,0.7-1.21,0.37-1.86
			c-0.88-1.54-2-3.12-3.45-4.66c-1.12-1.21-2.61-2.56-4.38-4.05c-0.61-0.51-1.44-0.28-2.1,0.09c-2.19,1.3-4.1,3.03-5.54,5.12
			c-1.21,1.72-2.05,3.73-2.65,5.73c-0.93,3.12-1.21,6.38-0.75,9.59c0.51,3.68,2.19,7.03,4.19,10.11c1.35,2.05,2.79,4.05,4.75,5.54
			c2.65,2,5.87,3.07,9.17,3.45c3.03,0.33,6.15,0,8.99-1.16c0.33-0.14,0.61-0.28,0.93-0.42c-1.44,4.24,0.14,9.27,4.94,10.38
			c7.36,1.72,15.32,0.14,22.87-1.4c15.83-3.17,30.92-9.17,46.66-12.62c17.46-3.82,35.21-6.47,53.09-6.94
			c5.63-0.14,11.27-0.05,16.9,0.28c2.24,0.14,5.59,1.72,3.82,4.28c-6.99,10.11-15.41,19.14-24.54,27.38
			c-4.89,4.42-9.97,8.66-15.23,12.62c-3.63,2.75-7.36,5.36-11.18,7.82c2.65-3.45,4.75-7.31,6.19-11.41
			c1.91-5.36,3.35-10.99,2.38-16.67c-0.74-4.33-2.1-8.71-5.22-11.92c-1.68-1.72-3.73-3.12-5.96-4.05c-1.86-0.79-3.91-1.4-5.96-0.93
			l-13.32,3.07c-1.86,0.42-3.73,4.05-0.51,3.82c6.99-0.51,9.69,6.89,10.25,12.85c0.28,3.07-0.37,6.1-0.93,9.08
			c-1.72,9.17-5.54,17.7-9.78,25.94c-0.75,1.49-1.07,3.91,0.98,4.28l12.34,2.37c2.14,0.42,4.33,0.09,6.19-0.93
			c5.45-2.98,10.9-6.1,16.21-9.31c16.86-10.2,33.95-20.58,47.41-34.97c3.73-4,7.45-8.29,8.89-13.6c2.14,2.79,4.1,5.68,6.66,8.06
			c2.05,1.91,4.28,3.63,6.66,5.12c1.96,1.26,4.38,1.21,6.61,1.12l11.22-0.37c2.1-0.09,4.19-1.02,5.31-2.84
			c0.75-1.21,1.68-2.33,2.28-3.63c0.65-1.4,1.16-2.84,1.49-4.33C422.76,107.66,422.15,106.4,420.99,105.98z"/>
	</g>
</g>
</svg>
