<?xml version="1.0" encoding="utf-8"?>
<!-- Generator: Adobe Illustrator 26.0.0, SVG Export Plug-In . SVG Version: 6.00 Build 0)  -->
<svg version="1.1" id="Capa_1" xmlns="http://www.w3.org/2000/svg" xmlns:xlink="http://www.w3.org/1999/xlink" x="0px" y="0px"
	 viewBox="0 0 360.77 176.98" style="enable-background:new 0 0 360.77 176.98;" xml:space="preserve">
<style type="text/css">
	.st0{fill:#F5F5F5;}
</style>
<g>
	<path class="st0" d="M237.97,164.96c-5.11-2.59-10.02-5.58-14.74-8.89c-7.04-4.98-13.28-10.89-19.18-17.19
		c-9.96-10.69-17.79-23.1-24.69-35.98c-7.43-13.94-12.81-28.81-17.19-43.94c-3.32-11.48-5.84-23.16-7.5-34.98
		c-0.13-1.13-0.6-2.32-1.73-2.72c-4.98-1.92-9.89-3.98-14.74-6.17c-2.99-1.33-5.97-2.72-8.96-4.12c-1.06-0.46-2.39-1.13-3.39-0.33
		l-8.96,7.17c-0.93,0.73-0.86,2.06-0.66,3.12c1.19,6.44,2.06,12.94,2.72,19.51c0.93,9.82,1.92,19.71,1.06,29.54
		c-0.6,6.84-1.73,13.54-3.45,20.18c-5.77-6.24-10.82-13.14-15.07-20.58c-3.85-6.7-6.24-14.14-9.29-21.24
		c-0.66-1.46-2.26-2.19-3.78-2.06c-3.05,0.2-6.17,0.4-9.23,0.66c-3.32,0.27-6.64,0.73-9.96,1.06c-1.73,0.2-2.72,1.79-2.72,3.45
		c-0.07,5.71-0.33,11.42-0.73,17.12c-0.93,12.01-1.73,24.09-5.11,35.64c-1.53,5.18-3.39,10.22-5.51,15.13
		c-0.2,0.46-0.2,1.13,0.33,1.33c3.32,1.33,6.64,2.59,9.96,3.78c3.65,1.33,7.3,2.52,10.95,3.78c1.06,0.4,2.32,0,2.79-1.06
		c2.19-4.71,3.85-9.69,5.11-14.74c1.73-7.04,1.59-14.4,2.39-21.57c3.98,7.17,7.83,14.34,11.68,21.57c2.79,5.24,5.51,10.49,8.23,15.8
		c4.71,0.2,9.36,0.4,14.07,0.66c3.92,0.2,7.83,0.46,11.68,0.73c0.93,0.07,1.99-0.13,2.39-1.06c1-2.32,1.92-4.71,2.72-7.17
		c2.19-6.64,3.19-13.61,4.12-20.58c1.26-9.56,1.59-19.18,1.06-28.81c2.19,8.63,4.91,17.12,8.23,25.35
		c3.45,8.63,7.17,17.12,12.01,25.02c5.51,8.96,11.75,17.59,19.51,24.69c6.24,5.64,12.81,11.08,20.58,14.4
		c7.37,3.12,15.4,4.18,23.36,4.85c3.65,0.33,7.3,0.4,10.95,0.33C238.16,166.69,238.96,165.49,237.97,164.96z"/>
	<path class="st0" d="M313.36,89.74c1.23-11.65-0.19-23.34-2.77-34.74c-2.35-10.57-5.43-21.06-11.05-30.33
		c-3.16-5.21-6.77-9.99-10.92-14.41l-25.69,4.9c0.08,0.79,0.44,1.61,0.96,2.18c3.07,3.33,5.93,6.98,8.4,10.76
		c3.43,5.22,6.32,10.82,8.52,16.69c3.05,8.2,4.63,16.82,4.87,25.56c0.19,6.65-0.45,13.26-1.84,19.74c-0.23,0.92-1.47,1.5-2.05,0.59
		c-2.87-4.05-5.68-8.17-8.38-12.39c-4.79-7.4-9.22-15.07-13.53-22.76c-4.28-7.56-8.32-15.31-12.17-23.09
		c-0.88-1.79-2.72-2.93-4.7-2.68c-2.78,0.33-5.59,0.46-8.34,0.91c-3.08,0.52-6.13,1.17-9.13,2.08c-4.99,1.49-8.29,6.85-5.87,11.73
		c2.2,4.45,4.02,9.03,5.46,13.76c2.47,7.98,4.32,16.27,4.02,24.64c-0.19,5.71-1.3,11.26-2.82,16.75c-0.73,2.57-1.58,5.17-2.59,7.66
		c-0.28,0.66-1.09,1.02-1.67,0.45c-1.57-1.52-3.06-3.27-4.34-5.05c-3.3-4.57-5.2-9.89-6.76-15.27c-1.57-5.38-2.62-10.92-2.47-16.49
		c0.08-2.04,0.23-4.1,0.59-6.13c0.32-1.88-1.08-3.92-3.12-3.6c-3.55,0.54-7.04,1.34-10.5,2.34c-3.15,0.87-6.25,1.94-9.26,3.18
		c-1.5,0.62-3.49,1.54-3.26,3.46c0.64,5.49,1.68,10.96,3.11,16.3c1.99,7.59,4.31,15.19,8.13,22.1c3.73,6.79,8.43,13.06,14.33,18.08
		c2.91,2.49,6.75,3.51,10.49,2.93c3.68-0.57,8.46-1.34,10.89-2.08c2.36-0.72,5.1-1.58,6.33-3.64c2.78-4.58,6.17-8.74,8.35-13.62
		c3.11-7.08,4.77-14.69,4.92-22.42c4.21,5.08,8.72,9.96,12.76,15.2c2.96,3.83,5.87,7.73,8.59,11.74c1.22,1.79,3.23,3.1,5.48,2.87
		c4.24-0.47,8.5-1.15,12.77-1.42c4.48-0.25,8.93-0.28,13.44-0.06c1.98,0.1,4.39-0.36,5.15-2.4
		C310.59,106.08,312.49,97.95,313.36,89.74z"/>
	<path class="st0" d="M332.62,48.12c-0.4-2.53-0.98-5.02-1.81-7.47c-1-3-2.8-5.68-5.39-7.48c-1.78-1.22-3.82-1.94-5.85-2.58
		c-0.69-0.22-1.54,0.22-1.38,1c1.24,5.82,2.25,11.62,3.02,17.52c0.67,5.15,1.14,10.32,1.44,15.52c0.84,0.24,1.69,0.48,2.54,0.67
		c0.75,0.17,1.51,0.3,2.26,0.47c2.63,0.61,4.48-1.85,4.97-4.21C333.35,57.13,333.33,52.57,332.62,48.12z"/>
	<path class="st0" d="M352.31,52c-0.39-3.05-1.02-6.04-1.95-8.97c-1.12-3.59-3.24-6.77-6.38-8.84c-2.15-1.41-4.65-2.21-7.13-2.9
		c-0.85-0.23-1.92,0.32-1.75,1.26c1.31,6.99,2.34,13.98,3.06,21.09c0.64,6.21,1.01,12.45,1.19,18.73c1.04,0.26,2.07,0.52,3.12,0.71
		c0.92,0.18,1.86,0.3,2.78,0.48c3.23,0.63,5.62-2.41,6.31-5.29C352.86,62.87,353.01,57.36,352.31,52z"/>
	<path class="st0" d="M30.79,64.55c1.12,2.48,2.43,4.81,3.98,6.97c1.88,2.64,4.52,4.51,7.75,4.99c2.21,0.32,4.56-0.04,6.87-0.48
		c0.79-0.15,1.56-1.09,1.18-1.83c-2.92-5.52-5.6-11.15-8.04-17.02c-2.14-5.12-4.07-10.38-5.83-15.76c-0.96,0.21-1.91,0.42-2.86,0.69
		c-0.84,0.23-1.67,0.52-2.51,0.75c-2.94,0.81-4.2,4.46-4.06,7.25C27.53,55.34,28.81,60.19,30.79,64.55z"/>
	<path class="st0" d="M17.65,75.34c3.35,5.5,7.59,10.07,11.38,15.09c1.68,2.23,4.26,3.22,6.91,3.38c2.29,0.14,4.62-0.3,6.96-0.81
		c1.27-0.27,1.68-2.17,0.76-2.93c-4.72-3.87-8.95-8.4-12.63-13.52c-3.44-4.8-6.34-10.08-8.75-15.71c-2.28-5.35-4.1-10.98-5.39-16.86
		c-0.82-3.75-1.41-7.61-1.82-11.51c-0.14-1.3-1.43-1.58-2.39-0.84l-6.24,4.9c-1.79,1.43-2.21,3.9-1.86,6.07
		C6.48,54.15,12.78,67.32,17.65,75.34z"/>
</g>
</svg>
